<?xml version="1.0" encoding="UTF-8" standalone="no"?>
<!-- Created with Inkscape (http://www.inkscape.org/) -->

<svg
   version="1.1"
   id="svg2"
   width="455.69333"
   height="90.746666"
   viewBox="0 0 455.69333 90.746666"
   sodipodi:docname="ODVA_CONFORMANT_2_Color.eps"
   xmlns:inkscape="http://www.inkscape.org/namespaces/inkscape"
   xmlns:sodipodi="http://sodipodi.sourceforge.net/DTD/sodipodi-0.dtd"
   xmlns="http://www.w3.org/2000/svg"
   xmlns:svg="http://www.w3.org/2000/svg">
  <defs
     id="defs6" />
  <sodipodi:namedview
     id="namedview4"
     pagecolor="#ffffff"
     bordercolor="#000000"
     borderopacity="0.25"
     inkscape:showpageshadow="2"
     inkscape:pageopacity="0.0"
     inkscape:pagecheckerboard="0"
     inkscape:deskcolor="#d1d1d1" />
  <g
     id="g8"
     inkscape:groupmode="layer"
     inkscape:label="ink_ext_XXXXXX"
     transform="matrix(1.3333333,0,0,-1.3333333,0,90.746667)">
    <g
       id="g10"
       transform="scale(0.1)">
      <path
         d="m 325.559,415.703 c -0.481,1.094 -1.516,1.758 -2.676,1.758 v 0.098 h -118.418 -0.063 c -1.675,0 -3.062,-1.407 -3.062,-2.996 0,-0.364 0.094,-0.801 0.359,-1.184 L 335.82,190.332 c 0.41,-1.004 1.504,-1.824 2.676,-1.824 1.328,0 2.442,0.937 2.891,2.148 l 58.093,92.578 v 0.067 c 0.149,0.293 0.239,0.703 0.239,1.015 0,0.567 -0.149,0.911 -0.383,1.329 l -73.777,130.058"
         style="fill:#f4a00f;fill-opacity:1;fill-rule:nonzero;stroke:none"
         id="path12" />
      <path
         d="m 1496.87,90.6563 c -1.86,12.9647 -14.24,22.8317 -28.45,22.8317 -25.72,0 -35.39,-21.906 -35.39,-44.7067 0,-21.6915 9.67,-43.5938 35.39,-43.5938 17.47,0 27.33,12.0508 29.5,29.1992 h 27.77 c -2.94,-32.4726 -25.36,-53.27342 -57.27,-53.27342 -40.33,0 -64.05,30.10942 -64.05,67.66802 0,38.6717 23.72,68.7697 64.05,68.7697 28.62,0 52.68,-16.778 56.13,-46.8947 h -27.68"
         style="fill:#1e3d6a;fill-opacity:1;fill-rule:nonzero;stroke:none"
         id="path14" />
      <path
         d="m 1615.34,25.1875 c 25.7,0 35.35,21.9023 35.35,43.5938 0,22.8007 -9.65,44.7067 -35.35,44.7067 -25.71,0 -35.4,-21.906 -35.4,-44.7067 0,-21.6915 9.69,-43.5938 35.4,-43.5938 z m 0,112.3635 c 40.33,0 64.04,-30.098 64.04,-68.7697 0,-37.5586 -23.71,-67.66802 -64.04,-67.66802 -40.34,0 -64.02,30.10942 -64.02,67.66802 0,38.6717 23.68,68.7697 64.02,68.7697"
         style="fill:#1e3d6a;fill-opacity:1;fill-rule:nonzero;stroke:none"
         id="path16" />
      <path
         d="m 1709.74,134.434 h 28.44 l 54.38,-87.3442 h 0.31 v 87.3442 h 26.83 V 4.21875 h -28.63 l -54.18,87.17965 h -0.36 V 4.21875 h -26.79 V 134.434"
         style="fill:#1e3d6a;fill-opacity:1;fill-rule:nonzero;stroke:none"
         id="path18" />
      <path
         d="m 1857.59,134.434 h 91.56 v -24.071 h -62.9 V 80.2734 h 54.52 V 58.0195 h -54.52 V 4.21875 h -28.66 V 134.434"
         style="fill:#1e3d6a;fill-opacity:1;fill-rule:nonzero;stroke:none"
         id="path20" />
      <path
         d="m 2035.88,25.1875 c 25.75,0 35.41,21.9023 35.41,43.5938 0,22.8007 -9.66,44.7067 -35.41,44.7067 -25.68,0 -35.39,-21.906 -35.39,-44.7067 0,-21.6915 9.71,-43.5938 35.39,-43.5938 z m 0,112.3635 c 40.34,0 64.05,-30.098 64.05,-68.7697 0,-37.5586 -23.71,-67.66802 -64.05,-67.66802 -40.3,0 -63.99,30.10942 -63.99,67.66802 0,38.6717 23.69,68.7697 63.99,68.7697"
         style="fill:#1e3d6a;fill-opacity:1;fill-rule:nonzero;stroke:none"
         id="path22" />
      <path
         d="m 2155.32,75.5391 h 31.31 c 12.79,0 19.72,5.4687 19.72,18.6015 0,12.5784 -6.93,18.0474 -19.72,18.0474 h -31.31 z m -28.66,58.8949 h 70.2 c 23.32,0 38.13,-16.211 38.13,-35.9262 0,-15.293 -6.18,-26.7969 -20.59,-32.6172 v -0.3945 c 14.02,-3.6406 18.03,-17.3203 18.96,-30.457 0.53,-8.1914 0.34,-23.5157 5.43,-30.82035 h -28.61 c -3.44,8.21485 -3.09,20.80075 -4.55,31.19145 -2.01,13.6718 -7.32,19.707 -21.72,19.707 h -28.59 V 4.21875 h -28.66 V 134.434"
         style="fill:#1e3d6a;fill-opacity:1;fill-rule:nonzero;stroke:none"
         id="path24" />
      <path
         d="m 2275.55,134.434 h 40.28 l 30.48,-89.5512 h 0.34 l 28.82,89.5512 h 40.32 V 4.21875 h -26.8 V 96.5156 h -0.41 l -31.9,-92.29685 h -22.05 L 2302.7,95.5977 h -0.35 V 4.21875 h -26.8 V 134.434"
         style="fill:#1e3d6a;fill-opacity:1;fill-rule:nonzero;stroke:none"
         id="path26" />
      <path
         d="m 2485.57,54.5625 h 33.71 l -16.4,47.7735 h -0.36 z m 2.7,79.8715 h 29.39 L 2566.33,4.21875 h -29.68 l -9.87,28.99605 h -48.71 L 2467.86,4.21875 h -28.99 l 49.4,130.21525"
         style="fill:#1e3d6a;fill-opacity:1;fill-rule:nonzero;stroke:none"
         id="path28" />
      <path
         d="m 2593.11,134.434 h 28.44 l 54.37,-87.3442 h 0.35 v 87.3442 h 26.82 V 4.21875 h -28.65 l -54.16,87.17965 h -0.35 V 4.21875 h -26.82 V 134.434"
         style="fill:#1e3d6a;fill-opacity:1;fill-rule:nonzero;stroke:none"
         id="path30" />
      <path
         d="m 2769.75,110.363 h -39.02 v 24.071 h 106.72 V 110.363 H 2798.4 V 4.21875 h -28.65 V 110.363"
         style="fill:#1e3d6a;fill-opacity:1;fill-rule:nonzero;stroke:none"
         id="path32" />
      <path
         d="M 662.344,97.3047 H 512.41 L 662.344,318.281 Z M 887.273,663.359 h -0.085 -21.946 -0.097 -69.684 -0.148 -21.922 -0.11 c -1.355,0 -2.363,-0.75 -2.804,-1.961 L 395.039,97.3047 H 97.3242 V 535.742 H 571.816 l 65.43,97.297 H 0 V 0 h 759.617 v 461.746 l 130.598,197.922 v 0.078 c 0,0.254 0,0.461 0,0.625 0,1.574 -1.262,2.988 -2.942,2.988"
         style="fill:#f4a00f;fill-opacity:1;fill-rule:nonzero;stroke:none"
         id="path34" />
      <path
         d="m 2361.43,660.246 c -0.51,1.152 -1.62,1.895 -2.91,1.895 v 0.078 h -127.68 c -1.77,0 -3.24,-1.496 -3.24,-3.223 0,-0.402 0.08,-0.84 0.37,-1.308 l 144.5,-240.352 c 0.43,-1.086 1.66,-1.965 2.91,-1.965 1.42,0 2.63,1.016 3.1,2.305 l 62.66,99.804 v 0.09 c 0.17,0.293 0.19,0.711 0.19,1.063 0,0.605 -0.13,0.996 -0.41,1.437 l -79.49,140.176"
         style="fill:#1e3d6a;fill-opacity:1;fill-rule:nonzero;stroke:none"
         id="path36" />
      <path
         d="m 2789.4,662.219 h -0.1 c -40.86,0 -81.74,0 -122.65,0 h -0.14 c -1.41,0 -2.46,-0.821 -2.99,-2.082 l -220.94,-366.68 h 0.12 c -0.31,-0.547 -0.41,-0.965 -0.41,-1.492 0,-1.692 1.43,-3.02 3.07,-3.086 h 23.84 c 0.06,0 0.06,0 0.06,0 h 94.77 c 0.15,0 0.15,0 0.15,0 1.39,0 2.64,0.75 3.07,1.922 l 225.33,367.453 v 0.086 c 0,0.254 0,0.488 0,0.656 0,1.727 -1.38,3.223 -3.18,3.223"
         style="fill:#f4a00f;fill-opacity:1;fill-rule:nonzero;stroke:none"
         id="path38" />
      <path
         d="m 1420.05,456.086 c 0,-52.551 -34.36,-94.973 -95.93,-94.973 -2.26,0 -175.58,0.098 -177.84,0.207 -57.73,3.094 -89.05,44.188 -89.05,94.766 v 49.043 c 0,50.937 31.84,92.293 90.47,94.754 1.75,0.109 174.54,0.109 176.42,0.109 61.57,0 95.93,-42.344 95.93,-94.863 z m -95.93,224.559 c -2.26,0 -175.55,0 -177.69,-0.079 -121.98,-2.82 -200.992,-81.824 -200.992,-179.929 v -40.625 c 0,-97.93 79.352,-177.559 202.102,-180.032 1.85,-0.097 174.7,-0.097 176.58,-0.097 125.9,0 207.79,80.781 207.79,180.129 v 40.625 c 0,99.98 -81.89,180.008 -207.79,180.008"
         style="fill:#1e3d6a;fill-opacity:1;fill-rule:nonzero;stroke:none"
         id="path40" />
      <path
         d="m 2049.26,453.965 c 0,-51.629 -35.4,-87.402 -96.54,-87.402 h -207.97 v 219.621 h 207.97 c 61.14,0 96.54,-35.383 96.54,-86.829 z m -90.93,208.957 H 1636 V 289.629 h 322.33 c 127.26,0 201.13,73.027 201.13,163.711 v 44.844 c 0,91.418 -73.87,164.738 -201.13,164.738"
         style="fill:#1e3d6a;fill-opacity:1;fill-rule:nonzero;stroke:none"
         id="path42" />
      <path
         d="m 2981.16,450.969 73.12,138.379 63.56,-105.637 21.03,-32.742 z m 359.39,-159.133 -223.63,369.113 c -0.37,1.133 -1.64,2.012 -2.87,2.012 -0.41,0 -0.51,-0.539 -0.88,-0.723 h -97.23 c 0,0 -0.11,0 -0.21,0 h -23.58 c 0,0 -0.11,0 -0.19,0 -1.33,0 -2.48,-0.84 -2.95,-2.09 L 2768.15,293.477 h 0.06 c -0.28,-0.567 -0.45,-0.985 -0.45,-1.512 0,-1.66 1.46,-3.02 3.07,-3.078 h 0.05 c 0.12,0 0.12,0 0.12,0 h 23.67 c 0.08,0 0.08,0 0.08,0 h 94.86 c 1.39,0 2.7,0.742 3.11,1.914 l 48.4,78.976 h 219.41 l 46.51,-80.5 c 0.58,-1.113 1.66,-1.855 2.95,-1.855 v -0.106 h 127.75 c 1.74,0 3.18,1.571 3.18,3.262 0,0.41 -0.11,0.848 -0.37,1.258"
         style="fill:#1e3d6a;fill-opacity:1;fill-rule:nonzero;stroke:none"
         id="path44" />
      <path
         d="m 3389.05,330.277 c -1.26,0.485 -3.04,0.731 -5.31,0.731 h -2.24 v -10.156 h 3.56 c 2.14,0 3.81,0.429 5.01,1.281 1.2,0.859 1.8,2.246 1.8,4.16 0,1.91 -0.94,3.238 -2.82,3.984 z m -16.72,-28.109 v 35.004 c 2.18,0 5.42,-0.004 9.75,-0.02 4.33,-0.011 6.73,-0.031 7.22,-0.062 2.78,-0.199 5.07,-0.801 6.9,-1.801 3.11,-1.715 4.66,-4.496 4.66,-8.355 0,-2.938 -0.82,-5.067 -2.46,-6.371 -1.64,-1.309 -3.66,-2.09 -6.06,-2.344 2.21,-0.461 3.86,-1.137 4.97,-2.028 2.06,-1.664 3.09,-4.281 3.09,-7.851 v -3.129 c 0,-0.344 0.02,-0.684 0.06,-1.027 0.05,-0.34 0.14,-0.688 0.26,-1.028 l 0.32,-0.988 h -8.74 c -0.28,1.117 -0.48,2.73 -0.58,4.844 -0.1,2.113 -0.29,3.539 -0.57,4.281 -0.46,1.23 -1.32,2.086 -2.58,2.574 -0.68,0.285 -1.73,0.469 -3.13,0.559 l -2.01,0.125 h -1.93 v -12.383 z m -4.71,35.863 c -5.03,-5.14 -7.54,-11.238 -7.54,-18.293 0,-7.316 2.55,-13.527 7.67,-18.64 5.09,-5.11 11.23,-7.668 18.43,-7.668 7.16,0 13.29,2.57 18.38,7.715 5.07,5.168 7.62,11.367 7.62,18.593 0,7.024 -2.53,13.125 -7.59,18.293 -5.1,5.254 -11.25,7.887 -18.41,7.887 -7.26,0 -13.45,-2.633 -18.56,-7.887 z m 40.67,-40.961 c -6.15,-5.941 -13.52,-8.91 -22.11,-8.91 -8.89,0 -16.37,3.043 -22.45,9.125 -6.09,6.086 -9.14,13.57 -9.14,22.453 0,9.227 3.29,16.895 9.86,23.008 6.17,5.711 13.41,8.567 21.73,8.567 8.71,0 16.15,-3.086 22.31,-9.25 6.17,-6.172 9.26,-13.614 9.26,-22.325 0,-8.972 -3.16,-16.523 -9.46,-22.668"
         style="fill:#1e3d6a;fill-opacity:1;fill-rule:nonzero;stroke:none"
         id="path46" />
    </g>
  </g>
</svg>
